<svg width="20" height="20" viewBox="0 0 20 20" fill="none" xmlns="http://www.w3.org/2000/svg">
<g clip-path="url(#clip0_70296_10635)">
<path fill-rule="evenodd" clip-rule="evenodd" d="M10 0.920898C10.6853 0.920953 11.3599 1.09377 11.9609 1.42285C12.4137 1.67079 12.8139 2.00161 13.1416 2.39648C13.6558 2.34618 14.1766 2.39443 14.6758 2.53906C15.3372 2.73077 15.9398 3.08631 16.4268 3.57324C16.9137 4.06018 17.2692 4.66281 17.4609 5.32422C17.6055 5.82312 17.6527 6.3435 17.6025 6.85742C17.9979 7.18534 18.329 7.5859 18.5771 8.03906C18.9063 8.6402 19.0791 9.31466 19.0791 10C19.0791 10.6853 18.9062 11.3599 18.5771 11.9609C18.329 12.414 17.9968 12.8137 17.6016 13.1416C17.6516 13.6551 17.6053 14.1753 17.4609 14.6738C17.2697 15.334 16.9142 15.9353 16.4287 16.4219C15.9431 16.9083 15.3424 17.2654 14.6826 17.458C14.185 17.6032 13.6654 17.6503 13.1523 17.6016C12.8243 17.9989 12.4231 18.3326 11.9688 18.582C11.3667 18.9125 10.6907 19.0859 10.0039 19.0859C9.31709 19.0859 8.64113 18.9125 8.03906 18.582C7.58515 18.3328 7.18333 18.0004 6.85547 17.6035C6.34296 17.6531 5.82367 17.606 5.32617 17.4619C4.66597 17.2707 4.06469 16.9152 3.57812 16.4297C3.09154 15.9441 2.73463 15.3435 2.54199 14.6836C2.39674 14.186 2.34877 13.6664 2.39746 13.1533C1.99879 12.8254 1.66353 12.4246 1.41309 11.9697C1.08103 11.3666 0.907268 10.6885 0.907227 10C0.907268 9.31174 1.08128 8.63424 1.41309 8.03125C1.66351 7.57641 1.99784 7.17359 2.39648 6.8457C2.34802 6.33332 2.39702 5.81438 2.54199 5.31738C2.73459 4.65754 3.09162 4.0559 3.57812 3.57031C4.0646 3.08499 4.66615 2.73029 5.32617 2.53906C5.82404 2.39487 6.34357 2.34773 6.85645 2.39746C7.18435 2.00207 7.58589 1.67104 8.03906 1.42285C8.64012 1.09381 9.31477 0.920954 10 0.920898ZM10 12.583C9.58589 12.583 9.25018 12.9189 9.25 13.333C9.25 13.7472 9.58579 14.083 10 14.083H10.0098C10.424 14.083 10.7598 13.7472 10.7598 13.333C10.7596 12.9189 10.4239 12.583 10.0098 12.583H10ZM10 5.91699C9.58579 5.91699 9.25 6.25278 9.25 6.66699V10C9.25018 10.4141 9.5859 10.75 10 10.75C10.4141 10.75 10.7498 10.4141 10.75 10V6.66699C10.75 6.25278 10.4142 5.91699 10 5.91699Z" fill="black"/>
</g>
<defs>
<clipPath id="clip0_70296_10635">
<rect width="20" height="20" fill="white"/>
</clipPath>
</defs>
</svg>
