<svg width="16" height="16" viewBox="0 0 16 16" fill="none" xmlns="http://www.w3.org/2000/svg">
<g clip-path="url(#clip0_70296_10634)">
<path d="M8 0.586914C8.57339 0.586936 9.13767 0.731506 9.64062 1.00684C9.99633 1.20164 10.3128 1.45865 10.5771 1.7627C10.982 1.73245 11.3907 1.77295 11.7832 1.88672C12.3365 2.04716 12.8407 2.34557 13.248 2.75293C13.6552 3.16029 13.9529 3.66456 14.1133 4.21777C14.2269 4.60999 14.2675 5.0183 14.2373 5.42285C14.5416 5.68736 14.7993 6.00345 14.9941 6.35938C15.2694 6.86222 15.414 7.42676 15.4141 8C15.414 8.5734 15.2695 9.13866 14.9941 9.6416C14.7991 9.99775 14.5409 10.3135 14.2363 10.5781C14.2662 10.9819 14.2267 11.3898 14.1133 11.7812C13.9532 12.3336 13.6562 12.8371 13.25 13.2441C12.8438 13.6512 12.3411 13.9492 11.7891 14.1104C11.3977 14.2246 10.99 14.2654 10.5859 14.2363C10.3212 14.5423 10.0044 14.8011 9.64746 14.9971C9.14377 15.2736 8.5785 15.4188 8.00391 15.4189C7.42917 15.4189 6.8632 15.2736 6.35938 14.9971C6.00266 14.8012 5.68549 14.543 5.4209 14.2373C5.01756 14.267 4.61075 14.2265 4.21973 14.1133C3.6673 13.9533 3.16399 13.6562 2.75684 13.25C2.34978 12.8438 2.05185 12.3411 1.89062 11.7891C1.77648 11.398 1.73375 10.9906 1.7627 10.5869C1.45601 10.3225 1.19666 10.0055 1 9.64844C0.722146 9.14377 0.576238 8.57609 0.576172 8C0.576238 7.424 0.722234 6.85714 1 6.35254C1.19675 5.99521 1.45575 5.67768 1.7627 5.41309C1.73381 5.00965 1.77659 4.60274 1.89062 4.21191C2.05178 3.65979 2.34974 3.15729 2.75684 2.75098C3.16403 2.34463 3.66717 2.04772 4.21973 1.8877C4.61144 1.77425 5.01881 1.73272 5.42285 1.7627C5.68731 1.45854 6.00354 1.20168 6.35938 1.00684C6.86238 0.731435 7.42654 0.586936 8 0.586914ZM8 9.91699C7.58579 9.91699 7.25 10.2528 7.25 10.667C7.25018 11.0811 7.5859 11.417 8 11.417H8.00977C8.42387 11.417 8.75959 11.0811 8.75977 10.667C8.75977 10.2528 8.42398 9.91699 8.00977 9.91699H8ZM8 4.58301C7.58589 4.58301 7.25017 4.91894 7.25 5.33301V8C7.25018 8.41406 7.5859 8.75 8 8.75C8.4141 8.75 8.74982 8.41406 8.75 8V5.33301C8.74983 4.91894 8.41411 4.58301 8 4.58301Z" fill="black"/>
</g>
<defs>
<clipPath id="clip0_70296_10634">
<rect width="16" height="16" fill="white"/>
</clipPath>
</defs>
</svg>
