<svg width="24" height="24" viewBox="0 0 24 24" fill="none" xmlns="http://www.w3.org/2000/svg">
<path d="M21.2449 11.9999C21.2449 11.4544 21.1075 10.9178 20.8455 10.4394C20.5835 9.96084 20.2055 9.55551 19.7459 9.26162C19.4801 9.09157 19.3496 8.7736 19.4188 8.46572C19.539 7.93096 19.5215 7.374 19.3689 6.84756C19.2163 6.3212 18.9332 5.84152 18.5457 5.454C18.1582 5.06651 17.6785 4.78333 17.1522 4.63076C16.6259 4.47824 16.0696 4.46181 15.535 4.58193C15.227 4.65118 14.9081 4.51976 14.7381 4.25381C14.4443 3.79438 14.0396 3.41617 13.5613 3.1542C13.0828 2.89219 12.5454 2.75479 11.9998 2.75479C11.4543 2.75482 10.9177 2.89224 10.4393 3.1542C9.96074 3.41621 9.55542 3.79418 9.26153 4.25381C9.09157 4.51961 8.77348 4.65095 8.46563 4.58193C7.93176 4.46229 7.37591 4.47954 6.8504 4.63174C6.32499 4.78399 5.846 5.06663 5.45879 5.45303C5.07168 5.83948 4.78882 6.31759 4.63555 6.84268C4.48225 7.36794 4.46325 7.92373 4.58184 8.45791C4.65019 8.76649 4.51787 9.08478 4.25079 9.25381C3.78778 9.54688 3.4067 9.95251 3.14239 10.4325C2.87804 10.9126 2.73908 11.4518 2.73907 11.9999C2.73907 12.548 2.87803 13.0871 3.14239 13.5673C3.40669 14.0473 3.78777 14.4529 4.25079 14.746C4.51798 14.9151 4.65037 15.2342 4.58184 15.5429C4.46336 16.0769 4.48233 16.632 4.63555 17.1571C4.78887 17.6824 5.07148 18.1612 5.45879 18.5478C5.84606 18.9342 6.32491 19.2168 6.8504 19.369C7.37593 19.5212 7.93175 19.5375 8.46563 19.4179C8.77392 19.3488 9.09275 19.4806 9.2625 19.747C9.55601 20.2084 9.96188 20.5883 10.4412 20.8515C10.9204 21.1146 11.458 21.2528 12.0047 21.2528C12.5515 21.2528 13.0898 21.1146 13.5691 20.8515C14.0484 20.5883 14.4534 20.2083 14.7469 19.747C14.9163 19.4808 15.2348 19.3495 15.5428 19.4179C16.0767 19.5364 16.632 19.5183 17.157 19.3651C17.6823 19.2118 18.1611 18.9283 18.5477 18.5409C18.9341 18.1536 19.2167 17.6749 19.3689 17.1493C19.5212 16.6237 19.5375 16.068 19.4178 15.5341C19.3488 15.2263 19.4802 14.9081 19.7459 14.7382C20.2055 14.4443 20.5835 14.039 20.8455 13.5604C21.1075 13.082 21.2449 12.5454 21.2449 11.9999ZM22.7449 11.9999C22.7449 12.7972 22.5448 13.5818 22.1619 14.2812C21.8603 14.8321 21.4513 15.3143 20.9637 15.705C21.035 16.3281 20.9848 16.9607 20.8094 17.5663C20.5869 18.3345 20.1741 19.0344 19.6092 19.6005C19.0443 20.1665 18.3455 20.5805 17.5779 20.8046C16.9726 20.9813 16.34 21.0329 15.7166 20.9628C15.3259 21.4527 14.843 21.8637 14.2908 22.1669C13.5903 22.5514 12.8038 22.7528 12.0047 22.7528C11.2056 22.7528 10.419 22.5515 9.71856 22.1669C9.16658 21.8638 8.68335 21.4535 8.29278 20.9638C7.67033 21.0347 7.03837 20.9847 6.4334 20.8095C5.66527 20.587 4.9653 20.1742 4.39922 19.6093C3.83325 19.0444 3.4192 18.3456 3.19512 17.578C3.01854 16.9731 2.96608 16.3406 3.03594 15.7177C2.54441 15.3272 2.13232 14.8438 1.82793 14.2909C1.44159 13.5892 1.23907 12.801 1.23907 11.9999C1.23908 11.1988 1.44158 10.4106 1.82793 9.70889C2.13243 9.15586 2.54418 8.67166 3.03594 8.28115C2.96628 7.65857 3.01865 7.02636 3.19512 6.42178C3.41922 5.65424 3.83325 4.95535 4.39922 4.39053C4.96531 3.82563 5.66525 3.41282 6.4334 3.19033C7.03863 3.01505 7.67104 2.96394 8.29375 3.03506C8.68432 2.54762 9.16782 2.14037 9.71856 1.83877C10.4179 1.45586 11.2025 1.25482 11.9998 1.25479C12.7972 1.25479 13.5817 1.45584 14.2811 1.83877C14.8317 2.14025 15.3143 2.54783 15.7049 3.03506C16.3291 2.96327 16.9634 3.01446 17.5701 3.19033C18.3394 3.41335 19.0399 3.82715 19.6063 4.39346C20.1727 4.95991 20.5864 5.66115 20.8094 6.43057C20.9851 7.03684 21.0362 7.67007 20.9647 8.29385C21.4522 8.6845 21.8603 9.16774 22.1619 9.71865C22.5448 10.418 22.7449 11.2026 22.7449 11.9999Z" fill="black"/>
<path d="M11.25 12V8C11.25 7.58579 11.5858 7.25 12 7.25C12.4142 7.25 12.75 7.58579 12.75 8V12C12.75 12.4142 12.4142 12.75 12 12.75C11.5858 12.75 11.25 12.4142 11.25 12Z" fill="black"/>
<path d="M12.0098 15.25C12.424 15.25 12.7598 15.5858 12.7598 16C12.7598 16.4142 12.424 16.75 12.0098 16.75H12C11.5858 16.75 11.25 16.4142 11.25 16C11.25 15.5858 11.5858 15.25 12 15.25H12.0098Z" fill="black"/>
</svg>
