<svg width="20" height="20" viewBox="0 0 20 20" fill="none" xmlns="http://www.w3.org/2000/svg">
<g clip-path="url(#clip0_70296_10637)">
<path d="M17.5794 9.99976C17.5794 9.56627 17.4702 9.13976 17.262 8.75952C17.0539 8.37932 16.7532 8.05755 16.388 7.82397C16.1221 7.65393 15.9907 7.33508 16.0599 7.0271C16.1555 6.60204 16.1421 6.15941 16.0208 5.74097C15.8995 5.32264 15.6745 4.94154 15.3665 4.63354C15.0586 4.32557 14.6774 4.10056 14.2591 3.97925C13.8407 3.85797 13.398 3.84464 12.973 3.94019C12.665 4.00943 12.3462 3.87801 12.1761 3.61206C11.9425 3.24688 11.6208 2.94623 11.2406 2.73804C10.8603 2.52986 10.4338 2.42071 10.0003 2.42065C9.56668 2.42065 9.13948 2.52977 8.75912 2.73804C8.37889 2.94626 8.05713 3.24686 7.82357 3.61206C7.65363 3.87785 7.3355 4.00917 7.02767 3.94019C6.60325 3.84503 6.16128 3.85825 5.74349 3.97925C5.32581 4.10025 4.94584 4.32541 4.63802 4.63257C4.33016 4.93979 4.10463 5.31956 3.98275 5.73706C3.86088 6.15459 3.84649 6.59662 3.94076 7.02124C4.00903 7.32971 3.87663 7.6481 3.6097 7.81714C3.24164 8.05007 2.93799 8.37213 2.72787 8.75366C2.51777 9.13525 2.4076 9.56416 2.40755 9.99976C2.40755 10.4354 2.51776 10.8642 2.72787 11.2458C2.938 11.6275 3.24155 11.9504 3.6097 12.1833C3.87662 12.3525 4.00924 12.6707 3.94076 12.9792C3.84652 13.4037 3.86098 13.845 3.98275 14.2625C4.10462 14.68 4.33014 15.0607 4.63802 15.3679C4.94577 15.6749 5.32597 15.8993 5.74349 16.0203C6.16127 16.1413 6.60326 16.1555 7.02767 16.0603L7.14388 16.0427C7.4137 16.0254 7.67616 16.1561 7.82455 16.3894C8.05783 16.756 8.38014 17.0582 8.76107 17.2673C9.142 17.4764 9.56969 17.5857 10.0042 17.5857C10.4388 17.5857 10.8665 17.4764 11.2474 17.2673C11.6283 17.0582 11.9506 16.7561 12.1839 16.3894L12.2542 16.2957C12.4327 16.0932 12.7095 15.9997 12.9788 16.0593C13.4035 16.1536 13.8455 16.1392 14.263 16.0173C14.6805 15.8955 15.0603 15.6699 15.3675 15.3621C15.6747 15.0543 15.8998 14.6743 16.0208 14.2566C16.1418 13.8388 16.155 13.3968 16.0599 12.9724C15.9909 12.6646 16.1222 12.3465 16.388 12.1765C16.7532 11.943 17.0538 11.6212 17.262 11.241C17.4703 10.8606 17.5794 10.4334 17.5794 9.99976ZM19.0794 9.99976C19.0794 10.6851 18.9066 11.3595 18.5775 11.9607C18.3293 12.4139 17.9972 12.8134 17.6019 13.1414C17.652 13.655 17.6057 14.175 17.4613 14.6736C17.27 15.3339 16.9146 15.935 16.429 16.4216C15.9434 16.9082 15.3429 17.2651 14.6829 17.4578C14.1852 17.603 13.6658 17.6501 13.1527 17.6013C12.8246 17.9988 12.4235 18.3323 11.9691 18.5818C11.3669 18.9124 10.6912 19.0857 10.0042 19.0857C9.31731 19.0857 8.64155 18.9123 8.03939 18.5818C7.58541 18.3325 7.1837 18.0002 6.8558 17.6033C6.34318 17.6529 5.82411 17.6058 5.3265 17.4617C4.6662 17.2704 4.06508 16.915 3.57845 16.4294C3.09181 15.9438 2.73496 15.3433 2.54232 14.6833C2.39704 14.1856 2.34906 13.6662 2.39779 13.1531C1.99907 12.8252 1.66387 12.4244 1.41341 11.9695C1.08132 11.3662 0.907555 10.6884 0.907555 9.99976C0.907596 9.31137 1.08149 8.63408 1.41341 8.03101C1.6639 7.57605 1.99803 7.17339 2.39681 6.84546C2.34834 6.33296 2.39728 5.81423 2.54232 5.31714C2.73496 4.65717 3.0918 4.0557 3.57845 3.57007C4.06502 3.08466 4.66633 2.73002 5.3265 2.53882C5.82447 2.3946 6.3438 2.34744 6.85677 2.39722C7.18477 2.00172 7.58608 1.67082 8.03939 1.42261C8.64054 1.09351 9.31499 0.920654 10.0003 0.920654C10.6857 0.920709 11.3601 1.09347 11.9613 1.42261C12.414 1.67055 12.8142 2.00135 13.1419 2.39624C13.6562 2.34593 14.1769 2.39413 14.6761 2.53882C15.3375 2.73054 15.9401 3.08605 16.4271 3.573C16.914 4.05994 17.2696 4.66257 17.4613 5.32397C17.6059 5.82292 17.653 6.3432 17.6029 6.85718C17.9982 7.1851 18.3293 7.58566 18.5775 8.03882C18.9066 8.63996 19.0794 9.3144 19.0794 9.99976Z" fill="black"/>
<path d="M9.25 9.99967V6.66666C9.25 6.25245 9.58579 5.91666 10 5.91666C10.4142 5.91666 10.75 6.25245 10.75 6.66666V9.99967C10.75 10.4139 10.4142 10.7497 10 10.7497C9.58579 10.7497 9.25 10.4139 9.25 9.99967Z" fill="black"/>
<path d="M10.0098 12.5833C10.424 12.5833 10.7598 12.9191 10.7598 13.3333C10.7598 13.7475 10.424 14.0833 10.0098 14.0833H10C9.58579 14.0833 9.25 13.7475 9.25 13.3333C9.25 12.9191 9.58579 12.5833 10 12.5833H10.0098Z" fill="black"/>
</g>
<defs>
<clipPath id="clip0_70296_10637">
<rect width="20" height="20" fill="white"/>
</clipPath>
</defs>
</svg>
