<svg width="16" height="16" viewBox="0 0 16 16" fill="none" xmlns="http://www.w3.org/2000/svg">
<g clip-path="url(#clip0_70296_10644)">
<path d="M13.9139 7.99961C13.9139 7.67801 13.8321 7.36178 13.6776 7.07969C13.5231 6.79749 13.3002 6.55867 13.0292 6.38535C12.7632 6.2153 12.6328 5.89644 12.702 5.58848C12.7728 5.27323 12.7627 4.94471 12.6727 4.63438C12.5827 4.32415 12.4157 4.04153 12.1874 3.81309C11.9588 3.58452 11.6756 3.41773 11.3651 3.32774C11.0546 3.23775 10.7264 3.22754 10.411 3.29844C10.1031 3.36759 9.78512 3.23621 9.6151 2.97031C9.44182 2.69935 9.20287 2.47637 8.92077 2.32188C8.63856 2.16736 8.32161 2.08652 7.99987 2.08652C7.67833 2.08655 7.36201 2.16753 7.07995 2.32188C6.7979 2.47631 6.55891 2.69945 6.38561 2.97031C6.21573 3.236 5.89744 3.36725 5.58971 3.29844C5.27482 3.22784 4.94656 3.23796 4.63659 3.32774C4.32671 3.41751 4.04465 3.58423 3.81628 3.81211C3.5879 4.04001 3.42038 4.32175 3.32995 4.63145C3.23953 4.94123 3.22876 5.26953 3.2987 5.58457C3.36703 5.89314 3.23472 6.21145 2.96764 6.38047C2.69454 6.55333 2.46923 6.79265 2.31335 7.07578C2.15761 7.35876 2.07611 7.67661 2.07604 7.99961C2.07604 8.3228 2.1575 8.64129 2.31335 8.92442C2.46925 9.20758 2.6945 9.44687 2.96764 9.61973C3.23478 9.78879 3.36712 10.107 3.2987 10.4156C3.22876 10.7307 3.23953 11.059 3.32995 11.3688C3.4204 11.6784 3.58794 11.9602 3.81628 12.1881C4.04465 12.4159 4.32673 12.5827 4.63659 12.6725C4.94656 12.7622 5.27482 12.7724 5.58971 12.7018L5.70495 12.6852C5.97499 12.6676 6.23808 12.7974 6.38659 13.0309C6.55967 13.3028 6.79833 13.5271 7.08092 13.6822C7.36359 13.8374 7.68132 13.9186 8.00378 13.9186C8.32606 13.9185 8.64313 13.8373 8.92565 13.6822C9.20834 13.527 9.44787 13.303 9.62096 13.0309L9.6903 12.9371C9.86881 12.7344 10.1463 12.641 10.4159 12.7008C10.7309 12.7707 11.0583 12.7599 11.368 12.6695C11.6778 12.5791 11.9604 12.4126 12.1883 12.1842C12.4163 11.9558 12.583 11.6728 12.6727 11.3629C12.7624 11.053 12.7716 10.7255 12.701 10.4107C12.6321 10.103 12.7635 9.7848 13.0292 9.61485C13.3002 9.44156 13.5231 9.20265 13.6776 8.92051C13.8321 8.63831 13.9139 8.32135 13.9139 7.99961ZM15.4139 7.99961C15.4139 8.57314 15.2695 9.13815 14.994 9.64121C14.7989 9.99746 14.5408 10.3131 14.2362 10.5777C14.2661 10.9817 14.2266 11.3893 14.1132 11.7809C13.9531 12.3333 13.6561 12.8366 13.2499 13.2438C12.8436 13.6508 12.341 13.9488 11.7889 14.11C11.3975 14.2242 10.9899 14.2651 10.5858 14.2359C10.3211 14.542 10.0044 14.8007 9.64733 14.9967C9.14359 15.2732 8.57844 15.4185 8.00378 15.4186C7.42894 15.4186 6.86314 15.2733 6.35925 14.9967C6.00242 14.8008 5.68541 14.5427 5.42077 14.2369C5.01736 14.2666 4.61069 14.2262 4.2196 14.1129C3.66705 13.9529 3.1639 13.6559 2.75671 13.2496C2.34955 12.8433 2.05169 12.3408 1.8905 11.7887C1.77632 11.3975 1.73356 10.9903 1.76257 10.5865C1.45578 10.322 1.19655 10.0052 0.99987 9.64805C0.721954 9.14327 0.576042 8.57584 0.576042 7.99961C0.576108 7.42352 0.722017 6.85681 0.99987 6.35215C1.19664 5.99477 1.45557 5.67731 1.76257 5.4127C1.73367 5.00915 1.77639 4.60245 1.8905 4.21152C2.05167 3.65934 2.34955 3.15692 2.75671 2.75059C3.1639 2.34424 3.66704 2.04733 4.2196 1.88731C4.61131 1.77386 5.01868 1.73233 5.42272 1.76231C5.6872 1.45813 6.00338 1.2013 6.35925 1.00645C6.86225 0.731046 7.42641 0.586547 7.99987 0.586525C8.5733 0.586525 9.1375 0.731096 9.6405 1.00645C9.99631 1.20127 10.3126 1.45818 10.577 1.76231C10.9819 1.73204 11.3905 1.77255 11.7831 1.88633C12.3365 2.04676 12.8405 2.34513 13.2479 2.75254C13.6552 3.15995 13.9528 3.66405 14.1132 4.21738C14.2269 4.60972 14.2674 5.01778 14.2372 5.42246C14.5415 5.68701 14.7991 6.00296 14.994 6.35899C15.2694 6.86192 15.4139 7.42623 15.4139 7.99961Z" fill="black"/>
<path d="M7.25 8.00033V5.33333C7.25 4.91912 7.58579 4.58333 8 4.58333C8.41421 4.58333 8.75 4.91912 8.75 5.33333V8.00033C8.74982 8.41439 8.4141 8.75033 8 8.75033C7.58589 8.75033 7.25018 8.41439 7.25 8.00033Z" fill="black"/>
<path d="M8.00976 9.91667C8.42398 9.91667 8.75976 10.2525 8.75976 10.6667C8.75976 11.0809 8.42398 11.4167 8.00976 11.4167H8C7.58579 11.4167 7.25 11.0809 7.25 10.6667C7.25 10.2525 7.58579 9.91667 8 9.91667H8.00976Z" fill="black"/>
</g>
<defs>
<clipPath id="clip0_70296_10644">
<rect width="16" height="16" fill="white"/>
</clipPath>
</defs>
</svg>
