<svg width="24" height="24" viewBox="0 0 24 24" fill="none" xmlns="http://www.w3.org/2000/svg">
<path fill-rule="evenodd" clip-rule="evenodd" d="M12 1.25488C12.7973 1.25491 13.5819 1.45596 14.2812 1.83887C14.8318 2.14034 15.3146 2.54799 15.7051 3.03516C16.3293 2.96339 16.9636 3.01458 17.5703 3.19043C18.3395 3.41346 19.0401 3.8273 19.6064 4.39355C20.1728 4.95998 20.5866 5.66131 20.8096 6.43066C20.9852 7.0369 21.0364 7.67022 20.9648 8.29395C21.4523 8.68458 21.8605 9.1679 22.1621 9.71875C22.5449 10.418 22.7451 11.2028 22.7451 12C22.7451 12.7972 22.5449 13.582 22.1621 14.2812C21.8605 14.8321 21.4514 15.3144 20.9639 15.7051C21.0352 16.3282 20.9849 16.9608 20.8096 17.5664C20.5871 18.3346 20.1743 19.0345 19.6094 19.6006C19.0445 20.1666 18.3457 20.5806 17.5781 20.8047C16.9728 20.9814 16.3401 21.0329 15.7168 20.9629C15.3262 21.4528 14.8432 21.8638 14.291 22.167C13.5906 22.5515 12.8039 22.7529 12.0049 22.7529C11.2058 22.7529 10.4192 22.5515 9.71875 22.167C9.16683 21.8639 8.68352 21.4535 8.29297 20.9639C7.67059 21.0348 7.03849 20.9847 6.43359 20.8096C5.66552 20.5871 4.96546 20.1742 4.39941 19.6094C3.83348 19.0446 3.4194 18.3456 3.19531 17.5781C3.01874 16.9732 2.96628 16.3407 3.03613 15.7178C2.54464 15.3274 2.1325 14.8438 1.82812 14.291C1.44179 13.5893 1.23927 12.801 1.23926 12C1.23927 11.1989 1.44177 10.4107 1.82812 9.70898C2.13262 9.15596 2.54437 8.67176 3.03613 8.28125C2.96647 7.65868 3.01885 7.02645 3.19531 6.42188C3.41941 5.65433 3.83344 4.95544 4.39941 4.39062C4.96549 3.82575 5.66546 3.41291 6.43359 3.19043C7.03878 3.01518 7.67128 2.96405 8.29395 3.03516C8.68451 2.54774 9.16802 2.14046 9.71875 1.83887C10.418 1.456 11.2028 1.25492 12 1.25488ZM12 15.25C11.5858 15.25 11.25 15.5858 11.25 16C11.25 16.4142 11.5858 16.75 12 16.75H12.0098C12.424 16.75 12.7598 16.4142 12.7598 16C12.7598 15.5858 12.424 15.25 12.0098 15.25H12ZM12 7.25C11.5858 7.25 11.25 7.58579 11.25 8V12C11.25 12.4142 11.5858 12.75 12 12.75C12.4142 12.75 12.75 12.4142 12.75 12V8C12.75 7.58579 12.4142 7.25 12 7.25Z" fill="black"/>
</svg>
