<svg width="16" height="16" viewBox="0 0 16 16" fill="none" xmlns="http://www.w3.org/2000/svg">
<g clip-path="url(#clip0_70309_10744)">
<path d="M14.666 13.917C15.0802 13.917 15.416 14.2528 15.416 14.667C15.4158 15.0811 15.0801 15.417 14.666 15.417H1.33301C0.919049 15.4168 0.583182 15.081 0.583008 14.667C0.583008 14.2529 0.918942 13.9172 1.33301 13.917H14.666Z" fill="black"/>
<path d="M5.33398 0.583008C6.48406 0.583362 7.41664 1.51594 7.41699 2.66602V10.666C7.41699 11.8164 6.48428 12.7496 5.33398 12.75H4C2.84956 12.7498 1.91699 11.8165 1.91699 10.666V2.66602C1.91735 1.51583 2.84977 0.583184 4 0.583008H5.33398Z" fill="black"/>
<path d="M12 5.25C13.1503 5.25018 14.0828 6.18267 14.083 7.33301V10.667C14.0828 11.8173 13.1503 12.7498 12 12.75H10.666C9.51583 12.7497 8.58318 11.8172 8.58301 10.667V7.33301C8.58319 6.18278 9.51583 5.25035 10.666 5.25H12Z" fill="black"/>
</g>
<defs>
<clipPath id="clip0_70309_10744">
<rect width="16" height="16" fill="white"/>
</clipPath>
</defs>
</svg>
