<svg width="16" height="16" viewBox="0 0 16 16" fill="none" xmlns="http://www.w3.org/2000/svg">
<g clip-path="url(#clip0_70309_10720)">
<path d="M5.91666 2.66634C5.91649 2.34444 5.65556 2.08351 5.33365 2.08334H3.99967C3.67776 2.08351 3.41684 2.34444 3.41666 2.66634V10.6663C3.41666 10.9884 3.67765 11.2502 3.99967 11.2503H5.33365C5.65567 11.2502 5.91666 10.9884 5.91666 10.6663V2.66634ZM7.41666 10.6663C7.41666 11.8168 6.4841 12.7502 5.33365 12.7503H3.99967C2.84923 12.7502 1.91666 11.8168 1.91666 10.6663V2.66634C1.91684 1.51601 2.84933 0.583512 3.99967 0.583336H5.33365C6.48399 0.583512 7.41649 1.51601 7.41666 2.66634V10.6663Z" fill="black"/>
<path d="M12.5833 7.33301C12.5832 7.0111 12.3222 6.75018 12.0003 6.75H10.6663C10.3444 6.75018 10.0835 7.0111 10.0833 7.33301V10.667C10.0835 10.9889 10.3444 11.2498 10.6663 11.25H12.0003C12.3222 11.2498 12.5832 10.9889 12.5833 10.667V7.33301ZM14.0833 10.667C14.0832 11.8173 13.1507 12.7498 12.0003 12.75H10.6663C9.516 12.7498 8.5835 11.8173 8.58333 10.667V7.33301C8.58351 6.18268 9.516 5.25018 10.6663 5.25H12.0003C13.1507 5.25018 14.0832 6.18268 14.0833 7.33301V10.667Z" fill="black"/>
<path d="M14.6663 13.9167C15.0806 13.9167 15.4163 14.2525 15.4163 14.6667C15.4163 15.0809 15.0806 15.4167 14.6663 15.4167H1.33333C0.919115 15.4167 0.583328 15.0809 0.583328 14.6667C0.583328 14.2525 0.919115 13.9167 1.33333 13.9167H14.6663Z" fill="black"/>
</g>
<defs>
<clipPath id="clip0_70309_10720">
<rect width="16" height="16" fill="white"/>
</clipPath>
</defs>
</svg>
