<svg width="20" height="20" viewBox="0 0 20 20" fill="none" xmlns="http://www.w3.org/2000/svg">
<g clip-path="url(#clip0_70309_10740)">
<path d="M6.66666 1.66667H4.99999C4.07952 1.66667 3.33333 2.41286 3.33333 3.33333V13.3333C3.33333 14.2538 4.07952 15 4.99999 15H6.66666C7.58714 15 8.33333 14.2538 8.33333 13.3333V3.33333C8.33333 2.41286 7.58714 1.66667 6.66666 1.66667Z" fill="black" stroke="black" stroke-width="1.5" stroke-linecap="round" stroke-linejoin="round"/>
<path d="M15 7.5H13.3333C12.4129 7.5 11.6667 8.24619 11.6667 9.16667V13.3333C11.6667 14.2538 12.4129 15 13.3333 15H15C15.9205 15 16.6667 14.2538 16.6667 13.3333V9.16667C16.6667 8.24619 15.9205 7.5 15 7.5Z" fill="black" stroke="black" stroke-width="1.5" stroke-linecap="round" stroke-linejoin="round"/>
<path d="M18.3333 18.3333H1.66667" stroke="black" stroke-width="1.5" stroke-linecap="round" stroke-linejoin="round"/>
</g>
<defs>
<clipPath id="clip0_70309_10740">
<rect width="20" height="20" fill="white"/>
</clipPath>
</defs>
</svg>
