<svg width="20" height="20" viewBox="0 0 20 20" fill="none" xmlns="http://www.w3.org/2000/svg">
<g clip-path="url(#clip0_70309_10740)">
<path d="M18.334 17.583C18.7478 17.5834 19.0838 17.9192 19.084 18.333C19.084 18.747 18.7479 19.0827 18.334 19.083H1.66699C1.25278 19.083 0.916992 18.7472 0.916992 18.333C0.917168 17.9189 1.25289 17.583 1.66699 17.583H18.334Z" fill="black"/>
<path d="M6.66602 0.916992C8.0007 0.916992 9.08301 1.9993 9.08301 3.33398V13.334C9.08266 14.6684 8.00049 15.75 6.66602 15.75H5C3.66568 15.7498 2.58336 14.6683 2.58301 13.334V3.33398C2.58301 1.9994 3.66546 0.917165 5 0.916992H6.66602Z" fill="black"/>
<path d="M15 6.75C16.3345 6.75017 17.417 7.83241 17.417 9.16699V13.333C17.417 14.6676 16.3345 15.7498 15 15.75H13.334C11.9993 15.75 10.917 14.6677 10.917 13.333V9.16699C10.917 7.8323 11.9993 6.75 13.334 6.75H15Z" fill="black"/>
</g>
<defs>
<clipPath id="clip0_70309_10740">
<rect width="20" height="20" fill="white"/>
</clipPath>
</defs>
</svg>
