<svg width="20" height="20" viewBox="0 0 20 20" fill="none" xmlns="http://www.w3.org/2000/svg">
<g clip-path="url(#clip0_70309_10712)">
<path d="M7.58334 3.33366C7.58334 2.8274 7.17261 2.41667 6.66635 2.41667H5.00033C4.49407 2.41667 4.08334 2.8274 4.08334 3.33366V13.3337C4.08351 13.8398 4.49418 14.2497 5.00033 14.2497H6.66635C7.1725 14.2497 7.58316 13.8398 7.58334 13.3337V3.33366ZM9.08334 13.3337C9.08316 14.6682 8.00093 15.7497 6.66635 15.7497H5.00033C3.66575 15.7497 2.58351 14.6682 2.58334 13.3337V3.33366C2.58334 1.99897 3.66564 0.916668 5.00033 0.916668H6.66635C8.00103 0.916668 9.08334 1.99897 9.08334 3.33366V13.3337Z" fill="black"/>
<path d="M15.9167 9.16699C15.9167 8.66073 15.5059 8.25 14.9997 8.25H13.3337C12.8274 8.25 12.4167 8.66073 12.4167 9.16699V13.333C12.4167 13.8393 12.8274 14.25 13.3337 14.25H14.9997C15.5059 14.25 15.9167 13.8393 15.9167 13.333V9.16699ZM17.4167 13.333C17.4167 14.6677 16.3344 15.75 14.9997 15.75H13.3337C11.999 15.75 10.9167 14.6677 10.9167 13.333V9.16699C10.9167 7.8323 11.999 6.75 13.3337 6.75H14.9997C16.3344 6.75 17.4167 7.8323 17.4167 9.16699V13.333Z" fill="black"/>
<path d="M18.3337 17.5833C18.7477 17.5835 19.0837 17.9192 19.0837 18.3333C19.0837 18.7474 18.7477 19.0832 18.3337 19.0833H1.66667C1.25246 19.0833 0.916672 18.7475 0.916672 18.3333C0.916672 17.9191 1.25246 17.5833 1.66667 17.5833H18.3337Z" fill="black"/>
</g>
<defs>
<clipPath id="clip0_70309_10712">
<rect width="20" height="20" fill="white"/>
</clipPath>
</defs>
</svg>
