<svg width="24" height="24" viewBox="0 0 24 24" fill="none" xmlns="http://www.w3.org/2000/svg">
<path d="M9.25 4C9.25 3.30964 8.69036 2.75 8 2.75H6C5.30964 2.75 4.75 3.30964 4.75 4V16C4.75 16.6904 5.30964 17.25 6 17.25H8C8.69036 17.25 9.25 16.6904 9.25 16V4ZM10.75 16C10.75 17.5188 9.51878 18.75 8 18.75H6C4.48122 18.75 3.25 17.5188 3.25 16V4C3.25 2.48122 4.48122 1.25 6 1.25H8C9.51878 1.25 10.75 2.48122 10.75 4V16Z" fill="black"/>
<path d="M19.25 11C19.25 10.3096 18.6904 9.75 18 9.75H16C15.3096 9.75 14.75 10.3096 14.75 11V16C14.75 16.6904 15.3096 17.25 16 17.25H18C18.6904 17.25 19.25 16.6904 19.25 16V11ZM20.75 16C20.75 17.5188 19.5188 18.75 18 18.75H16C14.4812 18.75 13.25 17.5188 13.25 16V11C13.25 9.48122 14.4812 8.25 16 8.25H18C19.5188 8.25 20.75 9.48122 20.75 11V16Z" fill="black"/>
<path d="M22 21.25C22.4142 21.25 22.75 21.5858 22.75 22C22.75 22.4142 22.4142 22.75 22 22.75H2C1.58579 22.75 1.25 22.4142 1.25 22C1.25 21.5858 1.58579 21.25 2 21.25H22Z" fill="black"/>
</svg>
