<svg width="24" height="24" viewBox="0 0 24 24" fill="none" xmlns="http://www.w3.org/2000/svg">
<path d="M22 21.25C22.4142 21.25 22.75 21.5858 22.75 22C22.75 22.4142 22.4142 22.75 22 22.75H2C1.58579 22.75 1.25 22.4142 1.25 22C1.25 21.5858 1.58579 21.25 2 21.25H22Z" fill="black"/>
<path d="M8 1.25C9.51878 1.25 10.75 2.48122 10.75 4V16C10.75 17.5188 9.51878 18.75 8 18.75H6C4.48122 18.75 3.25 17.5188 3.25 16V4C3.25 2.48122 4.48122 1.25 6 1.25H8Z" fill="black"/>
<path d="M18 8.25C19.5188 8.25 20.75 9.48122 20.75 11V16C20.75 17.5188 19.5188 18.75 18 18.75H16C14.4812 18.75 13.25 17.5188 13.25 16V11C13.25 9.48122 14.4812 8.25 16 8.25H18Z" fill="black"/>
</svg>
