<svg width="16" height="16" viewBox="0 0 16 16" fill="none" xmlns="http://www.w3.org/2000/svg">
<g clip-path="url(#clip0_70309_10744)">
<path d="M5.33334 1.33334H4.00001C3.26363 1.33334 2.66667 1.93029 2.66667 2.66667V10.6667C2.66667 11.403 3.26363 12 4.00001 12H5.33334C6.06972 12 6.66667 11.403 6.66667 10.6667V2.66667C6.66667 1.93029 6.06972 1.33334 5.33334 1.33334Z" fill="black" stroke="black" stroke-width="1.5" stroke-linecap="round" stroke-linejoin="round"/>
<path d="M12 6H10.6667C9.93028 6 9.33333 6.59695 9.33333 7.33333V10.6667C9.33333 11.403 9.93028 12 10.6667 12H12C12.7364 12 13.3333 11.403 13.3333 10.6667V7.33333C13.3333 6.59695 12.7364 6 12 6Z" fill="black" stroke="black" stroke-width="1.5" stroke-linecap="round" stroke-linejoin="round"/>
<path d="M14.6667 14.6667H1.33333" stroke="black" stroke-width="1.5" stroke-linecap="round" stroke-linejoin="round"/>
</g>
<defs>
<clipPath id="clip0_70309_10744">
<rect width="16" height="16" fill="white"/>
</clipPath>
</defs>
</svg>
