<svg width="24" height="24" viewBox="0 0 24 24" fill="none" xmlns="http://www.w3.org/2000/svg">
<path d="M21.2498 14.5C21.2498 13.5054 20.8545 12.5519 20.1512 11.8486C19.448 11.1454 18.4944 10.75 17.4998 10.75H15.7098C15.3782 10.7499 15.0858 10.5317 14.9911 10.2139C14.6599 9.10332 14.0269 8.10627 13.1619 7.33496C12.2969 6.56354 11.2339 6.04801 10.0926 5.8457C8.95148 5.64344 7.77646 5.76247 6.69906 6.18945C5.62155 6.61651 4.68383 7.33543 3.99105 8.26465C3.29849 9.19368 2.87797 10.2969 2.77621 11.4512C2.67451 12.6057 2.89519 13.7667 3.41488 14.8027C3.93455 15.8386 4.73241 16.7096 5.71859 17.3184C6.70475 17.9271 7.84091 18.2496 8.99984 18.25H17.4998C18.4944 18.25 19.448 17.8546 20.1512 17.1514C20.8545 16.4481 21.2498 15.4946 21.2498 14.5ZM22.7498 14.5C22.7498 15.8922 22.197 17.2274 21.2127 18.2119C20.2282 19.1965 18.8922 19.75 17.4998 19.75H8.99984C7.56262 19.7496 6.15347 19.3497 4.9305 18.5947C3.70763 17.8398 2.71844 16.7592 2.07406 15.4746C1.42983 14.1901 1.15603 12.7518 1.28207 11.3203C1.40816 9.88869 1.92991 8.52036 2.7889 7.36816C3.64795 6.21593 4.81022 5.32447 6.14632 4.79492C7.48232 4.26545 8.9393 4.11833 10.3543 4.36914C11.7695 4.62001 13.0873 5.25926 14.16 6.21582C15.0915 7.04654 15.806 8.08825 16.2469 9.25H17.4998C18.8922 9.25 20.2282 9.80352 21.2127 10.7881C22.197 11.7726 22.7498 13.1078 22.7498 14.5Z" fill="black"/>
</svg>
