<svg width="24" height="24" viewBox="0 0 24 24" fill="none" xmlns="http://www.w3.org/2000/svg">
<path fill-rule="evenodd" clip-rule="evenodd" d="M12.0001 1.25977C12.9703 1.25984 13.9283 1.48607 14.796 1.91992C15.6635 2.3538 16.4182 2.98385 17.0001 3.75977C17.5822 4.53589 17.976 5.43711 18.1496 6.3916C18.2754 7.08368 18.2818 7.7903 18.173 8.48145C18.9082 8.68501 19.6026 9.02245 20.2199 9.47852C21.0534 10.0945 21.7213 10.9078 22.1623 11.8457C22.6032 12.7837 22.8038 13.8176 22.7462 14.8525C22.6886 15.8873 22.3743 16.8922 21.8322 17.7754C21.2899 18.6585 20.5354 19.3934 19.6388 19.9131C18.7423 20.4325 17.7301 20.7206 16.6945 20.752C15.6586 20.7832 14.6306 20.5563 13.7042 20.0918C13.3673 19.9228 13.0486 19.7228 12.7501 19.4971V22C12.7501 22.4141 12.4142 22.7499 12.0001 22.75C11.586 22.75 11.2502 22.4141 11.2501 22V19.4922C10.951 19.7177 10.6318 19.9174 10.2941 20.0859C9.36778 20.5482 8.34054 20.7728 7.30581 20.7402C6.27094 20.7075 5.25977 20.4184 4.3644 19.8984C3.46893 19.3784 2.7163 18.6435 2.17495 17.7607C1.63372 16.878 1.32034 15.8746 1.26284 14.8408C1.20538 13.807 1.40584 12.7751 1.84584 11.8379C2.28596 10.9007 2.95216 10.0868 3.78432 9.4707C4.39998 9.01499 5.09278 8.67794 5.82631 8.47363C5.71882 7.78496 5.72634 7.08109 5.8517 6.3916C6.02531 5.43723 6.41814 4.53582 7.00014 3.75977C7.58221 2.9838 8.33763 2.35377 9.20522 1.91992C10.0728 1.48621 11.0302 1.25982 12.0001 1.25977ZM12.0001 2.75977C11.263 2.75982 10.5355 2.93214 9.87612 3.26172C9.21681 3.59142 8.64269 4.07048 8.20034 4.66016C7.75808 5.24993 7.45921 5.93488 7.32729 6.66016C7.1954 7.38563 7.23412 8.13197 7.44057 8.83984C7.50134 9.04828 7.46816 9.27345 7.35073 9.45605C7.23317 9.63841 7.04201 9.76094 6.82729 9.79199C6.0486 9.90393 5.30926 10.2078 4.6769 10.6758C4.04457 11.1439 3.53775 11.7625 3.20327 12.4746C2.86881 13.187 2.71721 13.9721 2.76088 14.7578C2.80462 15.5435 3.04289 16.3057 3.45424 16.9766C3.86567 17.6474 4.43679 18.2063 5.11733 18.6016C5.79779 18.9967 6.5662 19.2163 7.35268 19.2412C8.13913 19.266 8.92012 19.0955 9.62416 18.7441C10.328 18.3928 10.934 17.8717 11.3869 17.2285L11.4435 17.1572C11.4834 17.1131 11.5279 17.0741 11.5763 17.041C11.5804 17.0382 11.5849 17.0359 11.589 17.0332C11.7098 16.9542 11.8528 16.91 12.0011 16.9102L12.0773 16.9141C12.0809 16.9144 12.0845 16.9146 12.088 16.915C12.0913 16.9154 12.0945 16.9166 12.0978 16.917C12.12 16.9199 12.1417 16.924 12.1632 16.9287C12.2035 16.9377 12.2425 16.9505 12.2804 16.9658C12.2896 16.9695 12.2987 16.9735 12.3078 16.9775C12.3396 16.9919 12.37 17.0087 12.3996 17.0273C12.4103 17.0342 12.4214 17.0405 12.4318 17.0479C12.4618 17.069 12.49 17.0926 12.5167 17.1182C12.5238 17.1248 12.5305 17.1317 12.5373 17.1387C12.5647 17.167 12.5914 17.1967 12.6144 17.2295C13.0663 17.8748 13.672 18.3978 14.3761 18.751C15.0802 19.104 15.8613 19.2766 16.6486 19.2529C17.4357 19.2291 18.2055 19.01 18.8869 18.6152C19.5683 18.2203 20.1418 17.6614 20.5539 16.9902C20.9659 16.319 21.2044 15.555 21.2482 14.7686C21.2919 13.9823 21.1398 13.1971 20.8048 12.4844C20.4697 11.7715 19.9618 11.1527 19.3283 10.6846C18.6949 10.2166 17.9546 9.91377 17.1749 9.80273C16.8053 9.75013 16.5304 9.43297 16.5304 9.05957V9.0498C16.5304 8.97882 16.5408 8.90799 16.5607 8.83984C16.7671 8.13207 16.8058 7.38552 16.674 6.66016C16.5421 5.93491 16.2431 5.24993 15.8009 4.66016C15.3587 4.07046 14.7844 3.59149 14.1251 3.26172C13.4657 2.93201 12.7374 2.75984 12.0001 2.75977Z" fill="black"/>
</svg>
