<svg width="24" height="24" viewBox="0 0 24 24" fill="none" xmlns="http://www.w3.org/2000/svg">
<path d="M12.0001 1.25977C12.9703 1.25984 13.9283 1.48607 14.796 1.91992C15.6635 2.3538 16.4182 2.98385 17.0001 3.75977C17.5822 4.53589 17.976 5.43711 18.1496 6.3916C18.2754 7.08368 18.2818 7.7903 18.173 8.48145C18.9082 8.68501 19.6026 9.02245 20.2199 9.47852C21.0534 10.0945 21.7213 10.9078 22.1623 11.8457C22.6032 12.7837 22.8038 13.8176 22.7462 14.8525C22.6886 15.8873 22.3743 16.8922 21.8322 17.7754C21.2899 18.6585 20.5354 19.3934 19.6388 19.9131C18.7423 20.4325 17.7301 20.7206 16.6945 20.752C15.6586 20.7832 14.6306 20.5563 13.7042 20.0918C13.3673 19.9228 13.0486 19.7228 12.7501 19.4971V22C12.7501 22.4141 12.4142 22.7499 12.0001 22.75C11.586 22.75 11.2502 22.4141 11.2501 22V19.4922C10.951 19.7177 10.6318 19.9174 10.2941 20.0859C9.36778 20.5482 8.34054 20.7728 7.30581 20.7402C6.27094 20.7075 5.25977 20.4184 4.3644 19.8984C3.46893 19.3784 2.7163 18.6435 2.17495 17.7607C1.63372 16.878 1.32034 15.8746 1.26284 14.8408C1.20538 13.807 1.40584 12.7751 1.84584 11.8379C2.28596 10.9007 2.95216 10.0868 3.78432 9.4707C4.39998 9.01499 5.09278 8.67794 5.82631 8.47363C5.71882 7.78496 5.72634 7.08109 5.8517 6.3916C6.02531 5.43723 6.41814 4.53582 7.00014 3.75977C7.58221 2.9838 8.33763 2.35377 9.20522 1.91992C10.0728 1.48621 11.0302 1.25982 12.0001 1.25977Z" fill="black"/>
</svg>
