<svg width="24" height="24" viewBox="0 0 24 24" fill="none" xmlns="http://www.w3.org/2000/svg">
<path d="M13.0825 20.625C13.2896 20.2663 13.7482 20.1435 14.1069 20.3506C14.4656 20.5577 14.5884 21.0163 14.3813 21.375C14.14 21.7929 13.7933 22.1405 13.3754 22.3818C12.9575 22.6231 12.483 22.7499 12.0004 22.75C11.5179 22.75 11.0434 22.623 10.6254 22.3818C10.2074 22.1405 9.85996 21.793 9.61859 21.375C9.41146 21.0163 9.5343 20.5577 9.893 20.3506C10.2517 20.1435 10.7103 20.2663 10.9174 20.625C11.0271 20.815 11.1854 20.9723 11.3754 21.082C11.5654 21.1917 11.7811 21.25 12.0004 21.25C12.2197 21.2499 12.4355 21.1917 12.6254 21.082C12.8152 20.9724 12.9728 20.8148 13.0825 20.625Z" fill="black"/>
<path d="M11.9994 1.25C13.7895 1.25 15.507 1.96088 16.7728 3.22656C18.0387 4.49243 18.7494 6.20979 18.7494 8C18.7494 10.1709 19.0899 11.5444 19.5492 12.5166C20.0092 13.4901 20.6124 14.1189 21.2777 14.8047C21.2832 14.8104 21.289 14.8164 21.2943 14.8223C21.5225 15.0731 21.6726 15.385 21.7269 15.7197C21.7813 16.0545 21.7372 16.3979 21.6 16.708C21.4628 17.018 21.2386 17.2819 20.9545 17.4668C20.7059 17.6285 20.4207 17.7238 20.1263 17.7451L19.9994 17.75H3.99939C3.66045 17.7497 3.3282 17.651 3.04431 17.4658C2.76037 17.2805 2.53559 17.0163 2.3988 16.7061C2.26207 16.3958 2.21912 16.0523 2.2738 15.7178C2.32856 15.3831 2.47888 15.0708 2.7074 14.8203L2.72302 14.8037C3.38715 14.1181 3.99056 13.4893 4.45056 12.5156C4.90969 11.5435 5.24939 10.1706 5.24939 8C5.24939 6.20987 5.96117 4.49242 7.22693 3.22656C8.49262 1.96106 10.2096 1.25016 11.9994 1.25Z" fill="black"/>
</svg>
