<svg width="20" height="20" viewBox="0 0 20 20" fill="none" xmlns="http://www.w3.org/2000/svg">
<path d="M10.794 17.125C11.0011 16.7663 11.4597 16.6435 11.8184 16.8506C12.1771 17.0577 12.2999 17.5163 12.0928 17.875C11.8807 18.2424 11.5754 18.5477 11.208 18.7598C10.8407 18.9717 10.4241 19.083 10 19.083C9.57596 19.083 9.15931 18.9717 8.79202 18.7598C8.42466 18.5477 8.11937 18.2423 7.90725 17.875C7.70013 17.5163 7.82297 17.0577 8.18167 16.8506C8.54037 16.6435 8.99895 16.7663 9.20608 17.125C9.28654 17.2643 9.40267 17.3805 9.54202 17.4609C9.68125 17.5412 9.8393 17.583 10 17.583C10.1608 17.583 10.3188 17.5412 10.458 17.4609C10.5974 17.3805 10.7135 17.2643 10.794 17.125Z" fill="black"/>
<path d="M9.99988 0.916992C11.5248 0.917058 12.988 1.52329 14.0663 2.60156C15.1443 3.67984 15.7499 5.14228 15.7499 6.66699C15.7499 8.46279 16.0314 9.58778 16.4042 10.377C16.6844 10.97 17.0298 11.4062 17.4188 11.8281L17.8221 12.251L17.8387 12.2686C18.0449 12.4954 18.1812 12.7775 18.2304 13.0801C18.2794 13.3828 18.2392 13.6941 18.1151 13.9746C17.991 14.255 17.7881 14.4939 17.5311 14.6611C17.3061 14.8076 17.0477 14.8938 16.7811 14.9131L16.6669 14.917H3.33289C3.02618 14.9167 2.72553 14.8267 2.46863 14.6592C2.21204 14.4916 2.00938 14.253 1.88562 13.9727C1.76189 13.692 1.72193 13.3808 1.77137 13.0781C1.82092 12.7753 1.95811 12.4933 2.16492 12.2666L2.17957 12.25C2.73318 11.6784 3.22196 11.1677 3.59558 10.377C3.96837 9.5878 4.24985 8.46282 4.24988 6.66699C4.24988 5.1421 4.85626 3.67988 5.93445 2.60156C7.0127 1.52331 8.47502 0.917089 9.99988 0.916992Z" fill="black"/>
</svg>
