<svg width="16" height="16" viewBox="0 0 16 16" fill="none" xmlns="http://www.w3.org/2000/svg">
<path d="M8.50549 13.625C8.71265 13.2664 9.17123 13.1435 9.5299 13.3506C9.88844 13.5577 10.0113 14.0164 9.80432 14.375C9.62146 14.6917 9.35832 14.9549 9.04162 15.1377C8.72494 15.3205 8.36528 15.417 7.99963 15.417C7.63417 15.4169 7.27514 15.3204 6.95861 15.1377C6.64192 14.9549 6.37878 14.6917 6.19592 14.375C5.9888 14.0163 6.11163 13.5577 6.47033 13.3506C6.82904 13.1435 7.28762 13.2663 7.49475 13.625C7.54595 13.7137 7.61994 13.7877 7.70861 13.8389C7.79709 13.8899 7.89751 13.9169 7.99963 13.917C8.10195 13.917 8.203 13.89 8.29162 13.8389C8.3803 13.7877 8.45429 13.7137 8.50549 13.625Z" fill="black"/>
<path d="M8.00093 0.583008C9.26037 0.583255 10.4688 1.08403 11.3593 1.97461C12.2499 2.8653 12.7508 4.07349 12.7509 5.33301C12.7509 6.75412 12.9733 7.63108 13.2597 8.2373C13.5469 8.8449 13.9215 9.23793 14.3652 9.69531C14.3707 9.70102 14.3764 9.70701 14.3818 9.71289C14.5204 9.86521 14.624 10.0454 14.6855 10.2402L14.7324 10.4395L14.7509 10.6436C14.7542 10.8475 14.7129 11.0512 14.6298 11.2393C14.5189 11.4902 14.3363 11.7038 14.1064 11.8535C13.8766 12.003 13.6081 12.0829 13.3339 12.083H2.66695C2.39243 12.0828 2.12343 12.0025 1.89351 11.8525C1.66366 11.7025 1.48182 11.4894 1.37105 11.2383C1.26032 10.9871 1.22515 10.7084 1.26949 10.4375L1.31734 10.2383C1.37906 10.0438 1.48248 9.86386 1.62105 9.71191L1.63667 9.69531C2.07948 9.23815 2.45409 8.84484 2.74117 8.2373C3.02744 7.6311 3.25093 6.75376 3.25093 5.33301C3.25102 4.07346 3.75099 2.86531 4.64156 1.97461C5.53232 1.08405 6.74133 0.583008 8.00093 0.583008Z" fill="black"/>
</svg>
