<svg width="16" height="16" viewBox="0 0 16 16" fill="none" xmlns="http://www.w3.org/2000/svg">
<path d="M8.50549 13.625C8.71265 13.2664 9.17123 13.1435 9.5299 13.3506C9.88844 13.5577 10.0113 14.0164 9.80432 14.375C9.62146 14.6917 9.35832 14.9549 9.04162 15.1377C8.72494 15.3205 8.36528 15.417 7.99963 15.417C7.63417 15.4169 7.27514 15.3204 6.95861 15.1377C6.64192 14.9549 6.37878 14.6917 6.19592 14.375C5.9888 14.0163 6.11163 13.5577 6.47033 13.3506C6.82904 13.1435 7.28762 13.2663 7.49475 13.625C7.54595 13.7137 7.61994 13.7877 7.70861 13.8389C7.79709 13.8899 7.89751 13.9169 7.99963 13.917C8.10195 13.917 8.203 13.89 8.29162 13.8389C8.3803 13.7877 8.45429 13.7137 8.50549 13.625Z" fill="black"/>
<path d="M11.2505 5.33334C11.2505 4.4715 10.9077 3.64495 10.2983 3.03548C9.68896 2.42611 8.86226 2.08346 8.00049 2.08334C7.13853 2.08334 6.31115 2.42599 5.70166 3.03548C5.09232 3.64495 4.75049 4.4715 4.75049 5.33334C4.75049 6.91157 4.50229 8.02064 4.09717 8.87826C3.73754 9.63943 3.27101 10.1572 2.86181 10.5833H13.1382C12.7283 10.1569 12.2623 9.63899 11.9028 8.87826C11.4976 8.02048 11.2505 6.91148 11.2505 5.33334ZM12.7505 5.33334C12.7505 6.75452 12.9729 7.63141 13.2593 8.23763C13.5464 8.84523 13.921 9.23826 14.3647 9.69564C14.3703 9.70136 14.376 9.70732 14.3813 9.71322C14.52 9.86559 14.6236 10.0456 14.6851 10.2406L14.7319 10.4398L14.7505 10.6439C14.7538 10.848 14.7126 11.0514 14.6294 11.2396C14.5183 11.4907 14.3361 11.7041 14.106 11.8538C13.876 12.0034 13.6078 12.0834 13.3335 12.0833H2.6665C2.39192 12.0831 2.12302 12.0029 1.89306 11.8529C1.66322 11.7029 1.48137 11.4897 1.3706 11.2386C1.25984 10.9874 1.2247 10.7088 1.26904 10.4378L1.31689 10.2386C1.3786 10.044 1.48193 9.8643 1.6206 9.71224L1.63623 9.69564C2.0792 9.23831 2.45356 8.84534 2.74072 8.23763C3.02709 7.63141 3.25049 6.75444 3.25049 5.33334C3.25049 4.07367 3.75047 2.86571 4.64111 1.97494C5.53191 1.08414 6.74071 0.583336 8.00049 0.583336C9.26009 0.583465 10.4682 1.08425 11.3589 1.97494C12.2495 2.86571 12.7505 4.07367 12.7505 5.33334Z" fill="black"/>
</svg>
