<svg width="24" height="24" viewBox="0 0 24 24" fill="none" xmlns="http://www.w3.org/2000/svg">
<path d="M13.0825 20.625C13.2896 20.2663 13.7482 20.1435 14.1069 20.3506C14.4656 20.5577 14.5884 21.0163 14.3813 21.375C14.14 21.7929 13.7933 22.1405 13.3754 22.3818C12.9575 22.6231 12.483 22.7499 12.0004 22.75C11.5179 22.75 11.0434 22.623 10.6254 22.3818C10.2074 22.1405 9.85996 21.793 9.61859 21.375C9.41146 21.0163 9.5343 20.5577 9.893 20.3506C10.2517 20.1435 10.7103 20.2663 10.9174 20.625C11.0271 20.815 11.1854 20.9723 11.3754 21.082C11.5654 21.1917 11.7811 21.25 12.0004 21.25C12.2197 21.2499 12.4355 21.1917 12.6254 21.082C12.8152 20.9724 12.9728 20.8148 13.0825 20.625Z" fill="black"/>
<path d="M17.2498 8C17.2498 6.60778 16.697 5.27262 15.7126 4.28809C14.7281 3.30352 13.3921 2.75 11.9998 2.75C10.6075 2.75007 9.27235 3.30358 8.28784 4.28809C7.30335 5.27264 6.74975 6.60767 6.74975 8C6.74975 10.3279 6.38433 11.9327 5.80639 13.1562C5.23382 14.3683 4.47523 15.1507 3.81616 15.8311L3.77612 15.8906C3.76554 15.9124 3.7576 15.9359 3.75366 15.96C3.74594 16.0076 3.75277 16.0564 3.77221 16.1006C3.79172 16.1448 3.82355 16.1825 3.86401 16.209C3.90459 16.2355 3.95228 16.25 4.00073 16.25H20.0007C20.0489 16.2499 20.0961 16.2361 20.1365 16.21C20.177 16.1836 20.2096 16.1458 20.2292 16.1016C20.2488 16.0573 20.2546 16.0078 20.2468 15.96C20.2391 15.9122 20.2178 15.8678 20.1853 15.832H20.1843C19.5239 15.1513 18.7656 14.3687 18.1931 13.1572C17.6149 11.9335 17.2498 10.328 17.2498 8ZM18.7498 8C18.7498 10.171 19.0902 11.5444 19.5496 12.5166C20.0096 13.4902 20.6127 14.1188 21.2781 14.8047C21.2836 14.8104 21.2893 14.8164 21.2947 14.8223C21.5229 15.0731 21.673 15.385 21.7273 15.7197C21.7816 16.0545 21.7375 16.3979 21.6003 16.708C21.4631 17.0181 21.239 17.2818 20.9548 17.4668C20.7062 17.6286 20.4212 17.7238 20.1267 17.7451L19.9998 17.75H3.99975C3.66069 17.7498 3.32867 17.651 3.04468 17.4658C2.76062 17.2805 2.536 17.0164 2.39917 16.7061C2.26238 16.3958 2.21947 16.0524 2.27417 15.7178C2.32894 15.383 2.47915 15.0709 2.70776 14.8203L2.72339 14.8037C3.38754 14.118 3.99091 13.4894 4.45093 12.5156C4.91005 11.5435 5.24975 10.1706 5.24975 8C5.24975 6.20979 5.96142 4.49243 7.22729 3.22656C8.49307 1.96098 10.2098 1.25007 11.9998 1.25C13.7899 1.25 15.5073 1.96077 16.7732 3.22656C18.0391 4.49243 18.7498 6.20979 18.7498 8Z" fill="black"/>
</svg>
