<svg width="20" height="20" viewBox="0 0 20 20" fill="none" xmlns="http://www.w3.org/2000/svg">
<path d="M10.794 17.125C11.0011 16.7663 11.4597 16.6435 11.8184 16.8506C12.1771 17.0577 12.2999 17.5163 12.0928 17.875C11.8807 18.2424 11.5754 18.5477 11.208 18.7598C10.8407 18.9717 10.4241 19.083 10 19.083C9.57596 19.083 9.1593 18.9717 8.79202 18.7598C8.42465 18.5477 8.11937 18.2423 7.90725 17.875C7.70013 17.5163 7.82297 17.0577 8.18167 16.8506C8.54037 16.6435 8.99895 16.7663 9.20608 17.125C9.28654 17.2643 9.40267 17.3805 9.54202 17.4609C9.68125 17.5412 9.8393 17.583 10 17.583C10.1608 17.583 10.3188 17.5412 10.458 17.4609C10.5974 17.3805 10.7135 17.2643 10.794 17.125Z" fill="black"/>
<path d="M14.2496 6.66667C14.2496 5.53964 13.8023 4.45879 13.0055 3.66179C12.2085 2.86476 11.1268 2.41667 9.99963 2.41667C8.87259 2.41677 7.79169 2.86484 6.99475 3.66179C6.19783 4.4588 5.74963 5.53958 5.74963 6.66667C5.74963 8.61982 5.44335 9.97666 4.95178 11.0173C4.46507 12.0476 3.81937 12.712 3.27014 13.279C3.2603 13.2905 3.25404 13.305 3.25159 13.32C3.24902 13.3358 3.251 13.3522 3.25744 13.3669C3.26396 13.3816 3.27517 13.3942 3.28869 13.403C3.30212 13.4117 3.31762 13.4166 3.33362 13.4167H16.6666C16.6828 13.4167 16.699 13.4118 16.7125 13.403C16.726 13.3942 16.7363 13.3816 16.7428 13.3669C16.7493 13.3521 16.7522 13.3359 16.7496 13.32C16.747 13.304 16.739 13.289 16.7281 13.277C16.1783 12.7103 15.5332 12.0454 15.0475 11.0173C14.5559 9.97652 14.2496 8.61952 14.2496 6.66667ZM15.7496 6.66667C15.7496 8.46265 16.0311 9.58741 16.4039 10.3766C16.6842 10.9699 17.0294 11.4058 17.4186 11.8278L17.8219 12.2507L17.8385 12.2682C18.0448 12.4951 18.181 12.7771 18.2301 13.0798C18.2792 13.3826 18.239 13.6937 18.1149 13.9743C17.9907 14.2547 17.7879 14.4935 17.5309 14.6608C17.3058 14.8073 17.0475 14.8935 16.7809 14.9128L16.6666 14.9167H3.33264C3.02581 14.9164 2.72535 14.8265 2.46838 14.6589C2.21168 14.4912 2.00911 14.2528 1.88537 13.9723C1.7616 13.6916 1.72161 13.3806 1.77112 13.0778C1.82067 12.7749 1.95783 12.493 2.16467 12.2663L2.17932 12.2497C2.73297 11.6781 3.2217 11.1675 3.59534 10.3766C3.96814 9.58743 4.24963 8.46268 4.24963 6.66667C4.24963 5.14176 4.85598 3.67955 5.9342 2.60124C7.01245 1.52299 8.47477 0.916765 9.99963 0.916668C11.5246 0.916668 12.9877 1.5229 14.066 2.60124C15.1442 3.67954 15.7496 5.14182 15.7496 6.66667Z" fill="black"/>
</svg>
