<svg width="24" height="24" viewBox="0 0 24 24" fill="none" xmlns="http://www.w3.org/2000/svg">
<path fill-rule="evenodd" clip-rule="evenodd" d="M12 1.25C17.9371 1.25 22.75 6.06294 22.75 12C22.75 17.9371 17.9371 22.75 12 22.75C6.06294 22.75 1.25 17.9371 1.25 12C1.25 6.06294 6.06294 1.25 12 1.25ZM15.5303 8.46973C15.2374 8.17683 14.7626 8.17683 14.4697 8.46973L8.46973 14.4697C8.17683 14.7626 8.17683 15.2374 8.46973 15.5303C8.76262 15.8232 9.23738 15.8232 9.53027 15.5303L15.5303 9.53027C15.8232 9.23738 15.8232 8.76262 15.5303 8.46973ZM15 14.25C14.5858 14.25 14.25 14.5858 14.25 15C14.25 15.4142 14.5858 15.75 15 15.75H15.0098C15.424 15.75 15.7598 15.4142 15.7598 15C15.7598 14.5858 15.424 14.25 15.0098 14.25H15ZM9 8.25C8.58579 8.25 8.25 8.58579 8.25 9C8.25 9.41421 8.58579 9.75 9 9.75H9.00977C9.42398 9.75 9.75977 9.41421 9.75977 9C9.75977 8.58579 9.42398 8.25 9.00977 8.25H9Z" fill="black"/>
</svg>
